<svg xmlns="http://www.w3.org/2000/svg" xmlns:xlink="http://www.w3.org/1999/xlink" width="225" height="213.5" x="0" y="0" enable-background="new 0 0 225 213.5" version="1.1" viewBox="0 0 225 213.5" xml:space="preserve"><g id="Layer_2"><path d="M142.519,46.832c-17.118,0-32.766,6.434-44.769,17.07c-14.526,12.867-23.721,31.895-23.721,53.12 c0,6.195,0.782,12.214,2.258,17.933c0,0.002,0.001,0.004,0.002,0.006c-0.801,4.068-1.242,23.712-1.242,23.712 c1.926-11.966,4.493-19.363,4.495-19.371c0.001,0,0.001,0,0.002,0c0,0,0,0,0.007-0.007c0.231-0.762,15.335-49.34,33.772-65.328 c-0.735,0.979-24.333,32.568-28.576,64.015c14.92-4.775,26.263-17.383,29.072-32.908c0.048-0.252,0.088-0.51,0.129-0.756 c0.279-1.625,0.571-3.195,0.872-4.692c-10.271,1.237-12.814,5.577-12.963,5.849c1.578-5.182,13.418-9.629,13.792-9.766 c0.007-0.007,0.007-0.007,0.007-0.007c2.604-11.649,5.317-18.246,6.004-19.967c4.756-14.462,17.392-26.414,33.657-26.414 c3.293,0,6.475,0.462,9.494,1.319C157.827,48.171,150.327,46.832,142.519,46.832z" opacity=".3"/><path fill="#FFF8F9" d="M141.685,45.936c-17.118,0-32.765,6.434-44.769,17.07C82.39,75.873,73.195,94.9,73.195,116.126 c0,6.195,0.782,12.214,2.258,17.933c0,0.002,0.001,0.004,0.002,0.006c-0.801,4.068-1.242,23.712-1.242,23.712 c1.926-11.966,4.493-19.363,4.495-19.371c0.001,0,0.001,0,0.002,0c0,0,0,0,0.007-0.007c0.231-0.762,15.335-49.34,33.772-65.328 c-0.735,0.979-24.333,32.568-28.576,64.015c14.92-4.775,26.263-17.383,29.072-32.908c0.048-0.252,0.088-0.51,0.129-0.756 c0.279-1.625,0.571-3.195,0.872-4.692c-10.271,1.237-12.814,5.577-12.963,5.849c1.578-5.182,13.418-9.629,13.792-9.766 c0.007-0.007,0.007-0.007,0.007-0.007c2.604-11.649,5.317-18.246,6.004-19.967c4.756-14.462,17.391-26.414,33.657-26.414 c3.293,0,6.475,0.462,9.494,1.319C156.993,47.276,149.493,45.936,141.685,45.936z"/><path d="M140.294,149.158c0,0-2.209,2.295-6.205-1.02c0,0-3.655-1.7-8.246,1.785c0,0-6.362,3.768-9.088-2.727 c2.522-1.424,5.075-4.225,5.813-5.183c3.026-3.938,0.17-6.788-2.904-6.788s-6.474,2.803-5.563,5.973 c0.577,2.018,0.695,3.455,0.59,4.484l-0.002-0.002c0,0-15.059,8.76-40.477,13.095c0,0,13.631,3.644,39.899-10.724l0,0 c0.001,0.004,2.042,6.885,10.371,4.506c8.333-2.38,4.968-3.678,11.307-1.02c0,0,1.785,1.359,7.225-1.785 c5.441-3.146,8.842,0.86,8.842,0.86S147.095,143.973,140.294,149.158z M116.394,140.566c-0.503-1.768,1.394-3.332,3.108-3.332 c1.713,0,3.311,1.59,1.618,3.787c-0.557,0.729-2.999,3.367-4.712,3.367c-0.19,0-0.327,0.013-0.408,0.027 C116.353,144.258,117.23,143.497,116.394,140.566z" opacity=".3"/><path fill="#FFF8F9" d="M139.669,147.408c0,0-2.209,2.295-6.205-1.02c0,0-3.655-1.7-8.246,1.785c0,0-6.362,3.768-9.088-2.727 c2.522-1.424,5.075-4.225,5.813-5.183c3.026-3.938,0.17-6.788-2.904-6.788s-6.474,2.803-5.563,5.973 c0.577,2.018,0.695,3.455,0.59,4.484l-0.002-0.002c0,0-14.434,9.513-39.852,13.848c0,0,13.006,2.891,39.274-11.477l0,0 c0.001,0.004,2.042,6.885,10.371,4.506c8.332-2.38,4.968-3.678,11.307-1.02c0,0,1.785,1.359,7.225-1.785 c5.441-3.146,8.842,0.86,8.842,0.86S146.47,142.223,139.669,147.408z M115.769,138.816c-0.503-1.768,1.394-3.332,3.108-3.332 c1.713,0,3.311,1.59,1.618,3.787c-0.557,0.729-2.999,3.367-4.712,3.367c-0.19,0-0.327,0.013-0.408,0.027 C115.728,142.508,116.605,141.747,115.769,138.816z"/></g></svg>